<svg height="800" width="800" xmlns="http://www.w3.org/2000/svg" viewBox="0 0 512.001 512.001" xml:space="preserve"><circle style="fill:#f7b239" cx="256.005" cy="256.004" r="246.855"/><path style="fill:#e09b2d" d="M126.307 385.694c-88.801-88.802-95.798-228.426-20.998-325.241a249.063 249.063 0 0 0-23.858 20.999c-96.401 96.401-96.401 252.698 0 349.099s252.698 96.401 349.099 0a249.34 249.34 0 0 0 20.999-23.858c-96.816 74.799-236.44 67.802-325.242-20.999z"/><path style="fill:#e09b2d" d="M297.386 406.892c-.817 0-1.649-.11-2.474-.342a144.095 144.095 0 0 0-77.822 0 9.15 9.15 0 0 1-4.94-17.62 162.395 162.395 0 0 1 87.7 0 9.15 9.15 0 0 1 6.34 11.28c-1.131 4.04-4.805 6.682-8.804 6.682z"/><path style="fill:#a81004" d="M407.253 326.073c-.159.488-.329.988-.5 1.476l-.366 1.025c-5.124 14.249-15.749 25.143-28.73 30.913l-.085-.183a84.538 84.538 0 0 0-1.647-2.891c-14.334-24.155-40.673-40.331-70.818-40.331-18.409 0-35.39 6.039-49.103 16.262-13.712-10.223-30.718-16.262-49.139-16.262-30.108 0-56.471 16.176-70.793 40.331a85.507 85.507 0 0 0-1.647 2.891l-.085.183c-12.98-5.77-23.606-16.664-28.73-30.913l-.366-1.025c-.171-.488-.342-.976-.5-1.464 5.624-17.165 19.775-31.206 38.928-35.61a502.057 502.057 0 0 1 224.652 0c19.142 4.404 33.305 18.433 38.929 35.598z"/><path style="fill:#fff" d="M368.325 257c30.852 7.076 48.749 39.209 38.928 69.073-5.624-17.165-19.787-31.194-38.928-35.598a502.057 502.057 0 0 0-224.652 0c-19.153 4.404-33.304 18.445-38.928 35.61-9.808-29.876 8.064-61.997 38.928-69.085a502.028 502.028 0 0 1 224.652 0z"/><path style="fill:#f95428" d="M375.925 356.413a85.507 85.507 0 0 1 1.647 2.891l.085.183v.012a53.388 53.388 0 0 1-33.683 3.269 393.725 393.725 0 0 0-175.952 0 53.394 53.394 0 0 1-33.683-3.269v-.012l.085-.183a84.538 84.538 0 0 1 1.647-2.891c14.322-24.155 40.685-40.331 70.793-40.331 18.421 0 35.427 6.039 49.139 16.262 13.712-10.223 30.694-16.262 49.103-16.262 30.146-.001 56.485 16.176 70.819 40.331z"/><path d="M256 0C114.842 0 .001 114.841.001 256.001s114.841 256 255.999 256c141.159 0 256.001-114.841 256.001-256.001S397.16 0 256 0zm0 493.701c-131.068 0-237.7-106.631-237.7-237.7S124.932 18.299 256 18.299c131.069 0 237.702 106.632 237.702 237.702S387.069 493.701 256 493.701z"/><path d="M200.828 199.025a9.147 9.147 0 0 0-3.265-10.222c-1.519-1.119-37.803-27.4-91.428-27.4a9.15 9.15 0 0 0 0 18.3c21.322 0 39.709 4.781 53.513 10.062-43.987 6.912-84.384 24.556-86.483 25.482a9.148 9.148 0 0 0-4.677 12.064 9.152 9.152 0 0 0 8.376 5.459 9.117 9.117 0 0 0 3.688-.781c.605-.267 61.034-26.669 111.585-26.669a9.154 9.154 0 0 0 8.691-6.295zM438.837 215.245c-2.1-.926-42.553-18.594-86.575-25.497 13.773-5.274 32.161-10.047 53.604-10.047a9.15 9.15 0 0 0 9.15-9.15 9.15 9.15 0 0 0-9.15-9.15c-53.624 0-89.91 26.281-91.428 27.4a9.15 9.15 0 0 0 5.427 16.516c50.402 0 110.841 26.342 111.585 26.669 1.2.531 2.454.781 3.688.781a9.15 9.15 0 0 0 8.376-5.459c2.041-4.621-.053-10.023-4.677-12.063zM370.372 248.082c-74.821-17.177-153.922-17.178-228.746 0-17.134 3.934-31.921 14.978-40.57 30.298-8.68 15.376-10.504 33.803-5.013 50.53.177.545.367 1.091.583 1.707l.376 1.052c5.719 15.906 17.795 28.993 33.175 35.976.146.074.295.146.446.213 12.485 5.552 26.124 6.874 39.444 3.827 56.223-12.889 115.651-12.889 171.866 0a62.959 62.959 0 0 0 14.062 1.601c8.676 0 17.271-1.823 25.378-5.428.151-.067.3-.138.447-.213 15.379-6.984 27.456-20.072 33.185-36.004l.386-1.081c.189-.543.381-1.099.556-1.643 5.501-16.739 3.679-35.156-4.999-50.53-8.65-15.329-23.441-26.376-40.576-30.305zM145.72 265.918c72.145-16.563 148.413-16.563 220.559 0 12.312 2.823 22.516 10.446 28.736 21.465a44.515 44.515 0 0 1 3.884 9.175c-7.867-7.266-17.609-12.489-28.527-15-74.823-17.177-153.922-17.178-228.748.001-10.912 2.509-20.652 7.73-28.519 14.997a44.523 44.523 0 0 1 3.886-9.178c6.215-11.012 16.419-18.634 28.729-21.46zm200.299 87.931c-29.447-6.751-59.726-10.127-90.017-10.127-30.284 0-60.577 3.377-90.022 10.125-5.825 1.332-11.738 1.483-17.491.477 13.712-18.117 35.404-29.096 58.375-29.096 15.892 0 30.993 4.996 43.67 14.448a9.149 9.149 0 0 0 10.937 0c12.679-9.452 27.767-14.448 43.635-14.448 22.98 0 44.688 10.986 58.4 29.098-5.751 1.008-11.663.857-17.487-.477zm34.894-6.631c-16.902-24.973-45.468-40.286-75.806-40.286-17.606 0-34.447 4.922-49.103 14.295-14.656-9.372-31.512-14.295-49.139-14.295-30.329 0-58.879 15.305-75.781 40.286-7.517-5.138-13.382-12.52-16.617-21.103 5.435-13.538 16.925-23.428 31.252-26.722 72.146-16.564 148.414-16.563 220.553-.001 14.334 3.299 25.826 13.185 31.258 26.715-3.238 8.591-9.101 15.974-16.617 21.111z"/></svg>