<svg height="800" width="800" xmlns="http://www.w3.org/2000/svg" viewBox="0 0 512 512" xml:space="preserve"><circle style="fill:#f7b239" cx="256.004" cy="256.004" r="246.855"/><path style="fill:#e09b2d" d="M126.308 385.694c-88.802-88.802-95.799-228.426-20.999-325.241a249.063 249.063 0 0 0-23.858 20.999c-96.401 96.401-96.401 252.698 0 349.099s252.698 96.401 349.099 0a249.34 249.34 0 0 0 20.999-23.858c-96.815 74.799-236.441 67.802-325.241-20.999z"/><path d="M255.999 512C114.841 512 0 397.16 0 256.001S114.841 0 255.999 0C397.159 0 512 114.841 512 256.001S397.159 512 255.999 512zm0-493.701c-131.068 0-237.7 106.632-237.7 237.702s106.632 237.702 237.7 237.702c131.069 0 237.702-106.632 237.702-237.702S387.068 18.299 255.999 18.299z"/><path d="M198.66 242.515a9.147 9.147 0 0 1-7.864-4.458c-8.265-13.834-22.821-22.094-38.937-22.094s-30.672 8.26-38.937 22.094a9.15 9.15 0 0 1-15.709-9.385c11.6-19.417 32.028-31.007 54.646-31.007s43.046 11.592 54.646 31.007a9.149 9.149 0 0 1-7.845 13.843zM406.941 242.515a9.146 9.146 0 0 1-7.864-4.458c-8.265-13.834-22.821-22.094-38.937-22.094s-30.672 8.26-38.937 22.094a9.15 9.15 0 0 1-15.709-9.385c11.6-19.417 32.028-31.007 54.646-31.007s43.046 11.592 54.646 31.007a9.149 9.149 0 0 1-3.162 12.547 9.1 9.1 0 0 1-4.683 1.296zM273.097 397.082a9.15 9.15 0 0 1 0-18.3c10.646 0 19.307-8.66 19.307-19.306s-8.66-19.307-19.307-19.307a9.15 9.15 0 0 1 0-18.3c10.646 0 19.307-8.662 19.307-19.307 0-10.645-8.66-19.306-19.307-19.306a9.15 9.15 0 0 1 0-18.3c20.737 0 37.606 16.869 37.606 37.605 0 11.358-5.06 21.555-13.046 28.456 7.986 6.901 13.046 17.099 13.046 28.456-.002 20.739-16.871 37.609-37.606 37.609z"/><path style="fill:#f95428" d="M404.052 287.332c-9.761-18.693-32.826-25.935-51.519-16.174-18.693 9.761-25.935 32.826-16.174 51.519l35.345 67.693 67.693-35.345c18.693-9.761 25.935-32.826 16.174-51.519-9.76-18.693-32.825-25.934-51.519-16.174z"/><path d="M371.705 399.52a9.152 9.152 0 0 1-8.111-4.915l-35.345-67.693c-12.08-23.134-3.085-51.784 20.05-63.865 20.594-10.751 45.557-4.805 59.315 12.947 21.434-6.707 45.317 2.681 56.07 23.278 12.079 23.135 3.085 51.784-20.05 63.865l-67.694 35.345a9.168 9.168 0 0 1-4.235 1.038zm-1.547-123.544a28.854 28.854 0 0 0-13.39 3.294c-14.19 7.41-19.708 24.983-12.298 39.173l31.11 59.583 59.583-31.111c14.19-7.41 19.707-24.983 12.298-39.173-7.41-14.192-24.983-19.708-39.173-12.298a9.15 9.15 0 0 1-12.346-3.876c-5.176-9.912-15.309-15.592-25.784-15.592z"/></svg>